<svg xmlns="http://www.w3.org/2000/svg" viewBox="0 0 64 64" role="img" aria-label="Ankylosaurus icon">
  <rect width="64" height="64" rx="14" fill="#F8F7F3" />
  <path
    d="M13 36c0-8.6 7.5-15 19.4-15H39c6.4 0 10.4 2 12.2 5.8 1.3 2.7 1.5 5.6.4 8.5-1.4 3.8-4.6 6.5-8.9 7.5l-2.4.6-2.5 6.3h-5.1l1.7-5.4H26l-1.4 5.4h-4.8l1.2-6.1c-5.1-2.5-8-7-8-12.6Z"
    fill="#1F3D2B"
  />
  <path
    d="M20 34.5h19.4c3.2 0 5.7-.7 7.5-2.1"
    fill="none"
    stroke="#E6D3A3"
    stroke-linecap="round"
    stroke-width="2.4"
  />
  <path
    d="M24.5 20.8 27 16l3 4.8m3.8-1.5 2.7-4.3 2.7 4.3m3.5 1.1 2.3-4 2.6 4"
    fill="none"
    stroke="#1F3D2B"
    stroke-linecap="round"
    stroke-linejoin="round"
    stroke-width="2.2"
  />
  <circle cx="44.8" cy="28.4" r="1.9" fill="#F8F7F3" />
  <path
    d="M11.2 35.4 6.8 33l4.7-2.4"
    fill="none"
    stroke="#1F3D2B"
    stroke-linecap="round"
    stroke-linejoin="round"
    stroke-width="2.2"
  />
</svg>
